<svg width="1440" height="730" viewBox="0 0 1440 730" fill="none" xmlns="http://www.w3.org/2000/svg">
    <path
        d="M1441.05 167.309L1411.58 155.08C1411.33 154.979 1411.11 154.826 1410.93 154.633C1410.75 154.439 1410.61 154.209 1410.53 153.958C1410.44 153.706 1410.41 153.439 1410.43 153.173C1410.45 152.908 1410.53 152.65 1410.66 152.418L1413.91 146.588C1414.13 146.187 1414.49 145.883 1414.92 145.733C1415.35 145.584 1415.81 145.598 1416.23 145.774L1440.27 155.923C1442.3 156.778 1451.14 160.671 1448.63 146.265C1446.12 131.859 1442.14 118.686 1437.77 113.177C1433.41 107.668 1428.31 110.25 1420.87 122.481C1415.53 131.268 1385.73 174.718 1380.72 180.98C1373.94 189.443 1366.89 197.467 1366.89 197.467C1358.98 205.368 1349.67 181.449 1343.36 158.826C1335.68 131.319 1334.18 114.75 1346.95 118.167C1361.91 122.214 1376.52 127.469 1390.65 133.882C1390.9 133.995 1391.11 134.161 1391.29 134.369C1391.46 134.576 1391.59 134.82 1391.67 135.083C1391.74 135.346 1391.75 135.622 1391.71 135.892C1391.66 136.161 1391.56 136.417 1391.41 136.643L1387.26 142.847C1387 143.244 1386.59 143.524 1386.13 143.629C1385.67 143.735 1385.19 143.658 1384.78 143.415C1383.2 142.477 1380.5 140.922 1377.15 139.264L1363.88 159.229C1363.67 159.541 1363.39 159.797 1363.07 159.973C1362.74 160.149 1362.37 160.24 1362 160.238C1361.63 160.235 1361.26 160.14 1360.93 159.96C1360.61 159.78 1360.33 159.521 1360.13 159.207C1358.92 157.217 1358.28 154.93 1358.26 152.595C1358.26 152.158 1358.39 151.73 1358.62 151.362L1368.62 135.532C1365.61 134.369 1362.5 133.463 1359.34 132.824C1346.5 130.356 1354.4 157.261 1360.81 170.71C1367.23 184.159 1370.61 181.161 1392.58 150.976C1414.56 120.792 1424.05 103.524 1434.34 92.2346C1444.63 80.9449 1454.12 114.19 1460.19 137.116C1464.48 153.907 1472.58 179.836 1441.05 167.309Z"
        fill="#06DC5A" />
    <path
        d="M79.5956 415.244L-13.5902 428.489C-16.4284 428.891 -19.1604 429.855 -21.6302 431.327C-24.1 432.798 -26.259 434.748 -27.984 437.064C-29.709 439.381 -30.966 442.018 -31.6832 444.827C-32.4004 447.635 -32.5638 450.559 -32.164 453.432L-13.4929 588.02C-13.1935 590.178 -12.4305 592.243 -11.2576 594.07C-10.0847 595.897 -8.5304 597.442 -6.70418 598.595L34.9645 624.9C35.3312 625.136 35.7569 625.26 36.1911 625.257C36.6253 625.255 37.0497 625.127 37.4141 624.888C37.7785 624.649 38.0675 624.309 38.2469 623.909C38.4263 623.509 38.4885 623.065 38.4262 622.63L25.1783 527.134L54.3025 522.995C56.2643 522.714 58.2614 522.828 60.1796 523.33C62.0979 523.831 63.8997 524.71 65.4822 525.917C67.0647 527.123 68.3968 528.633 69.4024 530.361C70.408 532.089 71.0674 534 71.3429 535.986L82.4938 616.366C82.5522 616.802 82.7329 617.211 83.0142 617.546C83.2956 617.881 83.6658 618.127 84.0811 618.255C84.4965 618.383 84.9394 618.388 85.3574 618.269C85.7754 618.15 86.1509 617.913 86.4395 617.584L119.284 580.647C120.712 579.031 121.774 577.118 122.396 575.044C123.019 572.969 123.187 570.783 122.889 568.636L116.583 523.178C115.815 517.644 112.91 512.644 108.505 509.275C104.1 505.906 98.5549 504.442 93.0856 505.206C98.5616 504.428 103.508 501.48 106.836 497.01C110.165 492.54 111.603 486.915 110.834 481.372L104.267 434.04C103.87 431.165 102.916 428.397 101.46 425.896C100.004 423.394 98.0754 421.208 95.7837 419.462C93.4919 417.716 90.8824 416.444 88.1046 415.721C85.3268 414.997 82.4353 414.835 79.5956 415.244ZM63.6966 480.723C64.0242 483.075 63.8906 485.47 63.3033 487.77C62.716 490.07 61.6866 492.231 60.2738 494.128C58.8611 496.025 57.0928 497.622 55.07 498.827C53.0472 500.032 50.8096 500.821 48.4851 501.15L25.1738 504.464C24.3465 504.581 23.5069 504.361 22.8398 503.852C22.1726 503.344 21.7326 502.587 21.6164 501.75L14.6066 451.22C14.4904 450.383 14.7076 449.533 15.2105 448.858C15.7133 448.182 16.4606 447.737 17.2879 447.619L55.1663 442.236C55.9936 442.118 56.8332 442.338 57.5003 442.847C58.1675 443.356 58.6076 444.112 58.7237 444.95L63.688 480.734L63.6966 480.723Z"
        fill="#98A0EB" />
    <path fill-rule="evenodd" clip-rule="evenodd"
        d="M1374.72 477.338C1379.69 478.685 1383.93 481.954 1386.51 486.424C1389.1 490.894 1389.81 496.2 1388.49 501.175L1386.83 507.427L1399.32 510.814L1400.98 504.562C1402.29 499.587 1405.53 495.352 1409.97 492.787C1414.42 490.222 1419.71 489.538 1424.67 490.885C1429.64 492.233 1433.88 495.501 1436.46 499.971C1439.05 504.442 1439.76 509.748 1438.44 514.722L1436.7 521.312C1446.65 525.24 1455.34 531.833 1461.83 540.369C1468.31 548.906 1472.34 559.055 1473.47 569.705C1474.59 580.356 1472.77 591.095 1468.21 600.747C1463.65 610.399 1456.52 618.591 1447.6 624.424C1452.44 633.989 1454.57 644.693 1453.75 655.361C1452.94 666.029 1449.21 676.25 1442.97 684.904C1436.73 693.557 1428.23 700.309 1418.4 704.419C1408.57 708.529 1397.78 709.838 1387.22 708.204L1385.48 714.794C1384.16 719.768 1380.92 724.004 1376.48 726.569C1372.04 729.133 1366.75 729.817 1361.78 728.47C1356.81 727.123 1352.57 723.854 1349.99 719.384C1347.41 714.914 1346.7 709.608 1348.01 704.633L1349.67 698.381L1337.18 694.994L1335.53 701.246C1334.21 706.221 1330.97 710.456 1326.53 713.021C1322.09 715.586 1316.8 716.27 1311.83 714.923C1306.86 713.575 1302.62 710.307 1300.04 705.837C1297.46 701.366 1296.75 696.06 1298.06 691.086L1299.72 684.833L1280.99 679.753C1276.02 678.406 1271.78 675.137 1269.2 670.667C1266.62 666.197 1265.91 660.891 1267.22 655.916C1268.54 650.942 1271.78 646.706 1276.22 644.141C1280.66 641.576 1285.95 640.892 1290.92 642.24L1297.16 643.933L1326.95 531.393L1320.71 529.7C1315.74 528.352 1311.5 525.084 1308.92 520.614C1306.34 516.143 1305.63 510.837 1306.94 505.863C1308.26 500.888 1311.5 496.653 1315.94 494.088C1320.39 491.523 1325.67 490.839 1330.64 492.186L1349.37 497.267L1351.03 491.014C1352.34 486.04 1355.58 481.804 1360.02 479.239C1364.47 476.675 1369.76 475.991 1374.72 477.338ZM1344.56 616.58L1334.63 654.094L1390.82 669.335C1395.79 670.682 1401.07 669.998 1405.52 667.433C1409.96 664.868 1413.2 660.633 1414.52 655.658C1415.83 650.684 1415.12 645.378 1412.54 640.907C1409.96 636.437 1405.72 633.169 1400.75 631.821L1344.56 616.58ZM1354.49 579.067L1410.68 594.308C1415.65 595.655 1420.94 594.971 1425.38 592.407C1429.82 589.842 1433.06 585.606 1434.38 580.631C1435.69 575.657 1434.98 570.351 1432.4 565.881C1429.82 561.41 1425.58 558.142 1420.61 556.795L1364.42 541.554L1354.49 579.067Z"
        fill="#FFD05C" />
    <path
        d="M39.9001 0.371866C41.5271 0.1792 43.1755 0.392795 44.699 0.993699C46.2226 1.5946 47.5743 2.56424 48.6342 3.81657L115.983 83.4629L66.8108 111.194L44.6781 24.4894C44.0982 22.2437 40.7967 22.6341 40.7538 24.9535L38.9653 114.487L-15.2081 98.9789L32.1859 5.76192C32.932 4.296 34.0264 3.03706 35.3721 2.0968C36.7178 1.15655 38.2731 0.564044 39.9001 0.371866ZM59.6601 138.131L114.392 107.267L70.5421 193.514C69.797 194.983 68.7025 196.244 67.356 197.186C66.0095 198.128 64.4527 198.722 62.8241 198.915C61.1954 199.107 59.5453 198.893 58.0205 198.29C56.4957 197.688 55.1435 196.716 54.084 195.461L-8.22867 121.769L52.0488 139.031C53.3128 139.394 54.6363 139.501 55.9427 139.346C57.2492 139.192 58.5126 138.779 59.6601 138.131Z"
        fill="#9364EB" />
</svg>